<?xml version="1.0" standalone="no"?>
<!DOCTYPE svg PUBLIC "-//W3C//DTD SVG 20010904//EN"
 "http://www.w3.org/TR/2001/REC-SVG-20010904/DTD/svg10.dtd">
<svg version="1.0" xmlns="http://www.w3.org/2000/svg"
 width="349.000000pt" height="349.000000pt" viewBox="0 0 349.000000 349.000000"
 preserveAspectRatio="xMidYMid meet">
<metadata>
Created by potrace 1.14, written by Peter Selinger 2001-2017
</metadata>
<g transform="translate(0.000000,349.000000) scale(0.100000,-0.100000)"
fill="#000000" stroke="none">
<path d="M284 3348 c3 -79 5 -246 4 -373 -2 -389 2 -736 13 -1060 5 -170 13
-455 18 -633 5 -178 11 -325 14 -328 2 -2 12 -2 21 2 15 6 17 17 12 88 -3 44
-8 279 -12 521 -6 394 -5 444 9 472 14 27 15 50 7 179 -11 168 -17 598 -12
869 2 99 1 189 -3 200 -4 11 -15 38 -25 60 -10 22 -21 64 -25 93 -4 28 -11 52
-17 52 -6 0 -8 -50 -4 -142z"/>
<path d="M1370 3427 c0 -75 -14 -97 -125 -200 -99 -92 -166 -231 -199 -413
-25 -137 -39 -277 -34 -347 2 -37 2 -67 0 -67 -1 0 -13 11 -25 24 -30 33 -69
40 -96 18 -44 -35 -52 -242 -15 -372 8 -30 19 -89 24 -130 7 -66 11 -77 38
-100 29 -24 31 -32 41 -129 12 -110 28 -184 61 -270 23 -59 50 -249 50 -352
l0 -66 -97 -5 c-66 -4 -116 -12 -153 -27 -47 -18 -67 -20 -151 -14 -114 7
-233 -12 -204 -33 27 -20 -1 -25 -33 -7 -27 15 -37 16 -76 5 -26 -6 -53 -12
-62 -12 -20 0 -84 -29 -106 -48 -10 -8 -18 -13 -19 -11 -6 34 -11 316 -25
1289 -11 763 -11 745 -30 764 -10 11 -34 16 -75 16 l-59 0 0 -1470 0 -1470
1745 0 1745 0 0 310 c0 171 -3 310 -7 310 -3 0 -26 -12 -50 -26 -25 -14 -47
-23 -50 -20 -4 3 -1 6 5 6 7 0 12 6 12 14 0 8 9 18 21 21 13 4 18 12 15 21 -3
9 -1 12 5 9 6 -4 19 1 30 11 20 18 27 40 9 29 -5 -3 -10 1 -10 10 0 14 -6 16
-26 11 -22 -6 -25 -4 -20 10 5 13 2 15 -14 11 -11 -3 -20 -1 -20 4 0 11 -49 1
-67 -13 -7 -5 -17 -7 -23 -3 -5 3 -10 2 -10 -4 0 -11 -19 -9 -39 3 -8 5 -16 4
-21 -4 -4 -6 -16 -10 -26 -8 -14 2 -7 10 28 31 26 15 57 27 70 28 13 0 -1 8
-32 17 -30 9 -61 22 -68 29 -23 22 -76 46 -79 36 -2 -5 -17 -7 -34 -5 -32 5
-82 -15 -73 -29 2 -4 0 -10 -5 -13 -13 -8 -24 29 -16 54 6 19 3 20 -22 14 -15
-4 -32 -11 -38 -15 -13 -13 -139 -11 -152 2 -7 7 -16 1 -29 -20 l-19 -29 -28
24 c-19 16 -23 24 -13 24 21 0 21 16 0 24 -20 8 -94 -4 -94 -14 0 -5 12 -12
27 -17 15 -5 22 -12 16 -16 -6 -4 -23 5 -37 18 -15 14 -35 25 -44 24 -10 0
-12 -3 -4 -6 6 -2 12 -11 12 -18 0 -7 6 -16 13 -18 7 -3 5 -6 -5 -6 -24 -1
-23 -16 3 -42 11 -11 18 -23 15 -27 -7 -7 -56 38 -56 51 0 5 -8 16 -17 23 -17
13 -17 14 0 8 9 -3 17 -2 17 4 0 5 -12 13 -27 16 -16 4 -36 9 -45 12 -15 5
-17 0 -12 -28 l6 -33 -35 40 c-20 22 -32 41 -27 43 21 8 8 20 -27 26 -21 4
-51 9 -68 13 l-30 5 21 -23 c30 -34 48 -69 34 -69 -6 0 -8 -4 -5 -10 8 -13 17
-49 19 -77 0 -12 4 -25 8 -28 4 -4 3 -16 -2 -26 -7 -12 -7 -20 0 -24 5 -3 10
-11 10 -17 0 -6 -11 1 -25 16 -15 16 -25 39 -25 57 0 34 -20 40 -21 7 0 -13
-8 20 -18 72 -17 96 -28 126 -57 154 -24 24 -37 19 -31 -12 24 -112 27 -145
18 -184 -14 -60 -50 -138 -67 -145 -12 -4 -12 -7 2 -18 12 -8 14 -14 6 -19 -7
-4 -12 -15 -12 -26 0 -10 -7 -21 -15 -24 -14 -5 -14 -9 -2 -33 12 -23 12 -35
0 -86 -7 -33 -11 -62 -8 -65 3 -3 5 3 5 13 0 16 15 13 15 -3 0 -4 4 -12 8 -18
4 -7 0 -17 -8 -24 -11 -9 -15 -10 -15 -1 0 8 -5 7 -15 -3 -8 -8 -15 -20 -15
-26 0 -6 -4 -8 -10 -5 -5 3 -10 1 -10 -5 0 -20 -102 -108 -134 -116 -17 -4
-89 -8 -161 -8 -112 0 -137 3 -177 21 -27 12 -48 28 -48 36 0 7 -13 26 -30 42
-38 37 -38 44 3 41 22 -2 40 4 57 19 14 12 36 25 50 28 14 3 39 9 55 13 17 4
38 15 48 25 10 11 23 19 30 19 7 0 23 6 37 13 14 8 48 19 75 25 28 7 80 27
118 44 51 25 66 36 62 49 -3 10 1 19 10 23 8 3 15 16 15 30 0 19 4 23 20 19
11 -3 20 0 20 6 0 6 -4 11 -9 11 -15 0 -2 133 18 187 11 29 15 55 10 58 -10 7
10 55 23 55 5 0 6 10 3 21 -4 12 -3 19 2 16 7 -4 8 26 3 88 -4 40 57 220 115
340 37 77 73 158 81 179 8 22 23 46 34 53 21 15 29 40 9 27 -7 -4 -10 -1 -7 7
3 8 13 13 23 11 14 -3 16 1 12 18 -4 14 3 31 23 53 15 18 37 48 49 67 11 19
21 33 22 30 0 -3 2 -27 5 -55 3 -27 6 -57 7 -65 1 -8 -2 -59 -6 -113 -7 -82
-6 -103 7 -122 16 -24 48 -27 69 -6 5 5 15 112 21 237 9 185 9 230 -2 240 -7
7 -19 11 -27 8 -19 -8 -19 18 0 71 19 53 20 105 1 105 -8 0 -18 -5 -21 -11 -4
-6 -13 -8 -21 -5 -8 3 -14 1 -14 -3 0 -5 -9 -7 -20 -4 -26 7 -26 20 0 28 11 3
20 10 20 15 0 5 -7 7 -15 4 -19 -8 -19 -4 4 75 21 70 51 189 73 281 7 30 12
111 12 180 -1 140 -22 223 -74 290 -15 19 -35 49 -43 67 -15 28 -45 66 -121
153 -12 14 -37 36 -55 50 -18 14 -47 37 -65 51 -45 37 -154 95 -203 108 -73
20 -176 28 -238 20 -33 -5 -99 -11 -148 -15 -98 -7 -117 0 -117 47 l0 29 -90
0 -90 0 0 -63z m446 -461 c4 -9 22 -10 74 -4 64 8 72 6 115 -17 25 -14 51 -25
58 -24 22 4 127 -13 127 -21 0 -4 19 -13 43 -18 23 -6 60 -20 81 -31 21 -11
43 -18 48 -15 14 9 38 -16 65 -69 19 -39 24 -61 21 -106 -3 -52 -5 -56 -28
-56 -15 0 -24 5 -22 13 2 12 -30 17 -41 6 -11 -11 13 -44 31 -44 15 0 15 -2 2
-10 -13 -8 -13 -11 -1 -19 9 -6 11 -18 7 -35 -4 -16 -2 -26 4 -26 6 0 10 -8 8
-17 -1 -10 1 -24 5 -30 5 -7 4 -13 -2 -13 -5 0 -15 8 -21 18 -8 11 -13 13 -16
5 -3 -7 -13 -9 -22 -6 -9 3 0 -12 21 -33 20 -22 37 -47 37 -55 0 -8 7 -24 15
-36 13 -18 15 -57 13 -235 -2 -166 -6 -212 -16 -210 -7 1 -15 -4 -18 -12 -3
-8 -11 -13 -19 -10 -17 7 -27 -21 -19 -53 6 -23 5 -24 -14 -14 -18 10 -21 9
-16 -4 4 -8 2 -15 -4 -15 -6 0 -13 6 -15 13 -3 7 -6 5 -6 -5 -1 -20 -3 -21
-25 -12 -9 3 -14 10 -11 14 3 5 -8 11 -25 15 -21 5 -35 2 -46 -10 -12 -12 -19
-13 -30 -4 -8 6 -21 9 -29 5 -8 -3 -15 -1 -15 4 0 6 -6 10 -13 10 -7 0 -34 20
-61 45 -27 25 -54 45 -61 45 -6 0 -17 9 -25 20 -31 43 -41 13 -14 -44 36 -75
-12 -113 -75 -60 -26 21 -35 24 -63 16 -43 -11 -86 6 -117 48 -19 26 -22 41
-18 76 2 25 1 47 -4 49 -4 3 1 26 12 51 12 25 18 52 15 60 -3 8 10 37 29 64
19 28 35 59 35 70 0 12 9 22 24 26 31 7 49 -3 42 -23 -9 -22 12 -91 42 -143
15 -25 27 -48 27 -52 0 -3 3 -10 8 -14 7 -7 11 9 8 34 -1 6 0 12 3 12 14 0 62
-26 69 -37 4 -7 17 -13 27 -13 11 0 34 -9 52 -20 36 -22 98 -26 130 -9 15 8
30 7 64 -6 48 -18 64 -14 64 17 0 15 5 19 19 15 11 -3 29 2 40 9 19 14 20 22
15 117 -5 109 -15 134 -66 175 -15 13 -35 37 -43 53 -11 20 -23 29 -40 29 -13
0 -27 5 -30 10 -4 6 -15 8 -25 5 -10 -3 -42 4 -72 15 -30 11 -73 21 -96 23
-29 1 -41 6 -37 15 2 6 -2 12 -9 12 -8 0 -16 9 -19 20 -3 11 -10 20 -17 20 -7
0 -9 -8 -5 -20 6 -19 3 -20 -44 -16 -28 3 -53 1 -56 -3 -11 -19 -155 32 -195
69 -44 40 -55 47 -67 43 -6 -2 -17 5 -23 17 -10 19 -9 21 7 17 60 -17 73 -17
73 -3 0 10 6 13 15 10 9 -4 15 0 15 10 0 9 8 16 19 16 11 0 23 5 27 12 5 8 0
9 -16 5 -13 -3 -19 -2 -14 3 5 4 18 10 29 12 15 2 21 -3 23 -24 2 -14 10 -29
19 -32 22 -9 27 -1 15 21 -7 12 -7 25 -1 34 13 21 11 39 -6 39 -12 0 -13 4 -4
18 12 19 45 26 54 11 7 -10 65 -13 65 -3 0 16 -23 44 -35 44 -8 0 -15 5 -15
11 0 7 -10 9 -24 5 -17 -4 -28 -1 -34 10 -5 9 -12 15 -15 15 -21 -3 -28 0 -22
9 3 6 0 10 -8 10 -7 0 -23 11 -35 25 -23 26 -28 45 -13 45 5 0 11 8 13 18 4
14 16 18 62 19 37 1 59 -3 62 -11z m-286 -685 c0 -6 -4 -13 -10 -16 -5 -3 -10
1 -10 9 0 9 5 16 10 16 6 0 10 -4 10 -9z m68 -399 c4 -27 -18 -29 -41 -4 -20
22 -16 29 15 27 15 -1 24 -9 26 -23z m858 -104 c-3 -13 -5 -26 -5 -29 -1 -4
-8 -9 -16 -13 -12 -4 -14 0 -9 22 6 22 20 41 31 42 2 0 1 -10 -1 -22z m-461
-138 c3 -5 2 -10 -4 -10 -5 0 -13 5 -16 10 -3 6 -2 10 4 10 5 0 13 -4 16 -10z
m-185 -20 c0 -5 -11 -10 -25 -10 -14 0 -25 -5 -25 -11 0 -6 -7 -4 -15 5 -23
22 -19 26 25 26 22 0 40 -4 40 -10z m25 -48 c-3 -3 -11 0 -18 7 -9 10 -8 11 6
5 10 -3 15 -9 12 -12z m-189 -83 c3 -6 1 -15 -6 -19 -8 -5 8 -13 43 -20 44
-10 64 -10 99 0 92 26 104 25 116 -9 11 -30 10 -32 -35 -58 -35 -20 -57 -26
-95 -24 -28 1 -57 6 -67 11 -9 5 -27 11 -41 14 -14 4 -34 13 -45 21 -17 14
-18 17 -5 25 10 7 12 12 4 18 -6 4 -13 17 -16 30 -5 18 -2 22 17 22 13 0 27
-5 31 -11z m132 -11 c-5 -15 -68 -24 -68 -9 0 10 21 18 53 20 11 1 17 -4 15
-11z m139 -40 c-3 -8 -6 -5 -6 6 -1 11 2 17 5 13 3 -3 4 -12 1 -19z m-37 -273
c-7 -8 -17 -15 -23 -15 -6 0 -2 7 9 15 25 19 30 19 14 0z m-79 -1 c5 -3 -1
-14 -15 -25 -25 -20 -56 -25 -56 -10 0 5 -2 15 -5 23 -4 9 6 14 31 16 20 1 40
-1 45 -4z m-1646 -294 c-3 -5 -12 -10 -18 -10 -7 0 -6 4 3 10 19 12 23 12 15
0z m2618 -66 c-3 -9 0 -20 8 -25 9 -5 10 -11 4 -18 -7 -6 -16 -5 -28 4 -12 8
-14 15 -8 20 6 3 11 15 11 26 0 11 4 18 10 14 5 -3 6 -13 3 -21z m-303 -64 c0
-11 -30 -34 -31 -24 0 5 -2 25 -4 44 l-3 35 19 -24 c10 -13 19 -27 19 -31z
m521 -33 c-5 -30 -8 -108 -6 -173 2 -66 1 -106 -3 -90 -10 42 -9 298 2 314 15
24 18 5 7 -51z m-227 27 c17 -6 23 -54 7 -54 -5 0 -13 10 -17 23 -4 12 -12 25
-18 29 -14 10 5 11 28 2z m391 -4 c-3 -5 -12 -10 -18 -10 -7 0 -6 4 3 10 19
12 23 12 15 0z m-878 -57 c-3 -10 -5 -4 -5 12 0 17 2 24 5 18 2 -7 2 -21 0
-30z m188 -13 c-12 -19 -25 -10 -25 16 0 23 1 24 16 10 8 -9 12 -20 9 -26z
m-136 -27 c0 -25 -1 -26 -9 -8 -12 27 -12 35 0 35 6 0 10 -12 9 -27z m461 17
c0 -5 -4 -10 -9 -10 -6 0 -13 5 -16 10 -3 6 1 10 9 10 9 0 16 -4 16 -10z
m-290 -10 c0 -5 -5 -10 -11 -10 -5 0 -7 5 -4 10 3 6 8 10 11 10 2 0 4 -4 4
-10z m-65 -90 c3 -5 1 -10 -4 -10 -6 0 -11 5 -11 10 0 6 2 10 4 10 3 0 8 -4
11 -10z m-235 -115 c-6 -15 -13 -26 -15 -23 -3 2 1 19 8 37 6 17 13 28 15 23
1 -5 -2 -22 -8 -37z m-48 -24 c-7 -4 -10 -16 -7 -27 6 -18 6 -18 -5 -1 -9 14
-9 22 1 33 6 8 14 12 18 9 3 -3 0 -10 -7 -14z m28 -21 c0 -5 -4 -10 -10 -10
-5 0 -10 5 -10 10 0 6 5 10 10 10 6 0 10 -4 10 -10z m215 1 c3 -5 1 -12 -5
-16 -5 -3 -10 1 -10 9 0 18 6 21 15 7z m15 -51 c-18 -11 -24 -6 -16 16 5 14 9
15 19 5 9 -9 9 -14 -3 -21z m603 -50 c3 -25 2 -38 -2 -30 -12 21 -23 109 -12
90 4 -8 11 -35 14 -60z m-575 -1 c-1 -34 -13 -38 -22 -6 -9 35 -7 47 8 41 9
-3 14 -18 14 -35z"/>
<path d="M2071 2733 c-1 -9 -11 -10 -33 -6 -21 4 -29 3 -25 -5 9 -13 -2 -44
-13 -37 -11 7 -46 -22 -38 -31 12 -12 88 -20 146 -16 41 3 52 7 48 18 -3 8 1
14 8 14 8 0 20 2 28 3 7 2 10 2 6 0 -21 -12 -3 -23 35 -22 23 0 35 3 27 6 -31
12 -40 44 -10 36 13 -3 20 0 20 8 0 8 -9 20 -20 27 -12 7 -20 8 -20 2 0 -5 -9
-10 -20 -10 -11 0 -23 -7 -26 -15 -4 -8 -12 -15 -20 -15 -8 0 -14 7 -14 15 0
8 -9 15 -21 15 -11 0 -17 -4 -14 -10 3 -5 3 -10 -2 -10 -13 0 -30 14 -36 30
-3 9 -6 10 -6 3z"/>
<path d="M490 3289 c0 -6 -4 -8 -9 -5 -15 9 -74 -25 -63 -36 6 -6 7 -22 2 -37
-4 -16 -3 -35 2 -45 5 -9 7 -24 4 -31 -3 -8 1 -39 9 -70 8 -31 15 -69 15 -85
0 -16 7 -47 16 -69 13 -32 20 -39 39 -36 32 3 52 20 59 51 8 30 -10 102 -31
125 -18 21 -9 85 17 114 24 28 32 88 15 112 -15 21 -75 30 -75 12z"/>
<path d="M3236 3223 c-18 -18 -101 -29 -213 -27 l-121 2 -48 -41 c-97 -85
-109 -104 -79 -133 8 -8 20 -34 26 -57 7 -23 24 -54 37 -69 39 -43 140 -55
207 -26 22 10 54 18 71 18 36 0 134 -29 134 -40 0 -4 20 -11 44 -14 53 -8 70
-26 95 -99 17 -47 17 -57 5 -57 -7 0 -14 -5 -14 -10 0 -6 -13 -23 -29 -37 -27
-26 -28 -30 -16 -53 8 -14 16 -38 20 -54 5 -26 9 -28 38 -22 18 4 44 6 60 6
28 0 37 14 15 23 -8 3 -6 6 5 6 16 1 17 24 17 340 l0 339 -22 6 c-32 8 -223 7
-232 -1z"/>
<path d="M3345 2401 c-3 -6 -1 -11 4 -11 6 0 10 -3 10 -7 -1 -5 -1 -17 0 -28
1 -14 4 -16 9 -7 12 17 8 55 -5 59 -6 2 -14 -1 -18 -6z"/>
<path d="M464 2269 c-3 -6 -1 -16 5 -22 8 -8 11 -5 11 11 0 24 -5 28 -16 11z"/>
<path d="M3344 2250 c-6 -29 -8 -30 -60 -30 -57 0 -73 -15 -26 -26 15 -4 32
-10 37 -14 16 -12 56 -19 71 -13 11 4 12 9 3 19 -9 11 -8 15 5 20 22 8 20 36
-4 57 -20 17 -21 16 -26 -13z"/>
<path d="M471 2174 c0 -11 3 -14 6 -6 3 7 2 16 -1 19 -3 4 -6 -2 -5 -13z"/>
<path d="M2226 1235 c4 -8 11 -15 16 -15 6 0 5 6 -2 15 -7 8 -14 15 -16 15 -2
0 -1 -7 2 -15z"/>
<path d="M2405 1000 c-3 -5 -1 -10 4 -10 6 0 11 5 11 10 0 6 -2 10 -4 10 -3 0
-8 -4 -11 -10z"/>
<path d="M2260 988 c0 -5 -4 -7 -9 -3 -5 3 -12 1 -15 -4 -6 -9 16 -21 39 -21
22 0 25 28 4 33 -10 3 -19 1 -19 -5z"/>
<path d="M2307 981 c-6 -25 38 -35 73 -15 20 10 21 13 7 14 -10 0 -15 5 -12
10 4 6 -8 10 -28 10 -26 0 -36 -5 -40 -19z m53 -11 c0 -5 -5 -10 -11 -10 -5 0
-7 5 -4 10 3 6 8 10 11 10 2 0 4 -4 4 -10z"/>
<path d="M3149 962 c-58 -34 -79 -52 -79 -66 0 -6 41 -25 92 -43 93 -33 118
-32 118 3 0 8 13 22 29 32 l30 18 -45 42 c-54 50 -80 52 -145 14z"/>
<path d="M2423 897 c3 -11 97 -31 106 -22 5 6 -35 20 -77 28 -25 5 -32 3 -29
-6z"/>
<path d="M2270 870 c0 -5 5 -10 10 -10 6 0 10 5 10 10 0 6 -4 10 -10 10 -5 0
-10 -4 -10 -10z"/>
<path d="M2810 860 c0 -5 5 -10 10 -10 6 0 10 5 10 10 0 6 -4 10 -10 10 -5 0
-10 -4 -10 -10z"/>
</g>
</svg>
